<?xml version="1.0" encoding="utf-8"?>
<!-- Generator: Adobe Illustrator 25.2.3, SVG Export Plug-In . SVG Version: 6.00 Build 0)  -->
<svg version="1.1" id="Capa_1" xmlns="http://www.w3.org/2000/svg" xmlns:xlink="http://www.w3.org/1999/xlink" x="0px" y="0px"
	 viewBox="0 0 71.08 34" style="enable-background:new 0 0 71.08 34;" xml:space="preserve">
<style type="text/css">
	.st0{fill:#8BF6B9;stroke:#8BF6B9;stroke-miterlimit:10;}
	.st1{fill:#8BF6B9;}
	.st2{opacity:0.1;fill:#8BF6B9;}
</style>
<g>
	<g>
		<path class="st0" d="M66.28,28.01H6.72l-3.13-4.07V9.07l3.13-4.07h59.57l3.13,4.07v14.87L66.28,28.01z M6.8,27.76H66.2l3.02-3.93
			V9.17L66.2,5.24H6.8L3.78,9.17v14.66L6.8,27.76z"/>
	</g>
	<g>
		<rect x="7.81" y="8.73" class="st1" width="2.38" height="15.54"/>
		<rect x="11.75" y="8.73" class="st1" width="2.38" height="15.54"/>
		<rect x="15.68" y="8.73" class="st1" width="2.38" height="15.54"/>
		<rect x="19.62" y="8.73" class="st1" width="2.38" height="15.54"/>
		<rect x="23.55" y="8.73" class="st1" width="2.38" height="15.54"/>
		<rect x="27.49" y="8.73" class="st1" width="2.38" height="15.54"/>
		<rect x="31.43" y="8.73" class="st1" width="2.38" height="15.54"/>
		<rect x="35.36" y="8.73" class="st1" width="2.38" height="15.54"/>
		<rect x="39.3" y="8.73" class="st1" width="2.38" height="15.54"/>
		<rect x="43.79" y="8.73" class="st2" width="2.38" height="15.54"/>
		<rect x="47.72" y="8.73" class="st2" width="2.38" height="15.54"/>
		<rect x="51.66" y="8.73" class="st2" width="2.38" height="15.54"/>
		<rect x="55.6" y="8.73" class="st2" width="2.38" height="15.54"/>
	</g>
</g>
</svg>
