<?xml version="1.0" encoding="utf-8"?>
<!-- Generator: Adobe Illustrator 25.2.3, SVG Export Plug-In . SVG Version: 6.00 Build 0)  -->
<svg version="1.1" id="Capa_1" xmlns="http://www.w3.org/2000/svg" xmlns:xlink="http://www.w3.org/1999/xlink" x="0px" y="0px"
	 viewBox="0 0 57.08 47.1" style="enable-background:new 0 0 57.08 47.1;" xml:space="preserve">
<style type="text/css">
	.st0{fill:#00FA84;}
</style>
<g>
	<path class="st0" d="M27.42,38.96c-5.3,0-10.6,0-15.9,0c-2.45,0-4.39-1.49-4.94-3.81c-0.1-0.42-0.14-0.86-0.14-1.3
		c-0.01-6.87-0.01-13.74,0-20.61c0-2.99,2.12-5.1,5.12-5.1c10.58,0,21.15,0,31.73,0c3.02,0,5.14,2.11,5.14,5.12
		c0,6.86,0,13.71,0,20.57c0,3.01-2.12,5.12-5.14,5.12C38,38.96,32.71,38.96,27.42,38.96z M27.44,27.23
		c-5.9-4.39-11.77-8.75-17.71-13.17c0,0.22,0,0.35,0,0.48c0,6.41,0,12.81,0,19.22c0,1.28,0.63,1.92,1.91,1.92
		c10.54,0,21.07,0,31.61,0c1.28,0,1.91-0.63,1.91-1.92c0-6.41,0-12.81,0-19.22c0-0.13,0-0.26,0-0.48
		C39.2,18.48,33.33,22.85,27.44,27.23z M43.16,11.46c-10.51,0-20.94,0-31.44,0c5.28,3.92,10.49,7.8,15.72,11.69
		C32.66,19.26,37.88,15.38,43.16,11.46z"/>
</g>
</svg>
