<?xml version="1.0" encoding="utf-8"?>
<!-- Generator: Adobe Illustrator 25.2.3, SVG Export Plug-In . SVG Version: 6.00 Build 0)  -->
<svg version="1.1" id="Capa_1" xmlns="http://www.w3.org/2000/svg" xmlns:xlink="http://www.w3.org/1999/xlink" x="0px" y="0px"
	 viewBox="0 0 20.63 23.51" style="enable-background:new 0 0 20.63 23.51;" xml:space="preserve">
<style type="text/css">
	.st0{fill:#00FA84;stroke:#00FA84;stroke-miterlimit:10;}
</style>
<path class="st0" d="M7.57,2.97c1.03,1.03,2.07,2.07,3.1,3.1c1.66,1.66,3.31,3.31,4.97,4.97c0.38,0.38,0.76,0.76,1.13,1.13
	c0-0.28,0-0.57,0-0.85c-1.03,1.03-2.07,2.07-3.1,3.1c-1.66,1.66-3.31,3.31-4.97,4.97c-0.38,0.38-0.76,0.76-1.13,1.13
	c-0.55,0.55,0.3,1.4,0.85,0.85c1.03-1.03,2.07-2.07,3.1-3.1c1.66-1.66,3.31-3.31,4.97-4.97c0.38-0.38,0.76-0.76,1.13-1.13
	c0.23-0.23,0.23-0.62,0-0.85c-1.03-1.03-2.07-2.07-3.1-3.1c-1.66-1.66-3.31-3.31-4.97-4.97C9.18,2.88,8.8,2.5,8.42,2.12
	C7.87,1.57,7.02,2.42,7.57,2.97L7.57,2.97z"/>
</svg>
