<?xml version="1.0" encoding="utf-8"?>
<!-- Generator: Adobe Illustrator 25.2.3, SVG Export Plug-In . SVG Version: 6.00 Build 0)  -->
<svg version="1.1" id="Capa_1" xmlns="http://www.w3.org/2000/svg" xmlns:xlink="http://www.w3.org/1999/xlink" x="0px" y="0px"
	 viewBox="0 0 57.08 47.1" style="enable-background:new 0 0 57.08 47.1;" xml:space="preserve">
<style type="text/css">
	.st0{fill:#00FA84;}
</style>
<g>
	<circle class="st0" cx="20.27" cy="21.04" r="2.94"/>
	<circle class="st0" cx="29.27" cy="21.04" r="2.94"/>
	<circle class="st0" cx="38.27" cy="21.04" r="2.94"/>
</g>
<g>
	<path class="st0" d="M26.27,40.66c-0.43,0-0.86-0.14-1.21-0.42c-0.68-0.53-0.94-1.42-0.65-2.22l0.9-3l-3.59-0.34
		c-7.75-0.04-14.05-6.36-14.05-14.12c0-7.79,6.33-14.12,14.12-14.12h13.49c7.79,0,14.12,6.33,14.12,14.12
		c0,7.63-6.08,13.86-13.65,14.11l-8.39,5.65C27.04,40.55,26.65,40.66,26.27,40.66z M27.28,38.88l-0.02,0.07
		C27.27,38.93,27.27,38.91,27.28,38.88z M21.79,9.44c-6.13,0-11.12,4.99-11.12,11.12s4.99,11.12,11.12,11.12l0.14,0.01l7.3,0.69
		l-1.16,3.85l6.75-4.55h0.46c6.13,0,11.12-4.99,11.12-11.12S41.42,9.44,35.29,9.44H21.79z"/>
	<polygon class="st0" points="34.33,32.06 35.23,31.71 36.01,32.84 34.33,33.82 	"/>
</g>
</svg>
