<?xml version="1.0" encoding="utf-8"?>
<!-- Generator: Adobe Illustrator 25.2.3, SVG Export Plug-In . SVG Version: 6.00 Build 0)  -->
<svg version="1.1" id="Capa_1" xmlns="http://www.w3.org/2000/svg" xmlns:xlink="http://www.w3.org/1999/xlink" x="0px" y="0px"
	 viewBox="0 0 53.69 47.1" style="enable-background:new 0 0 53.69 47.1;" xml:space="preserve">
<style type="text/css">
	.st0{fill:#8BF6B9;}
</style>
<g>
	<path class="st0" d="M37.74,39.47c0.01,0.03,0.03,0.07,0.04,0.1c-0.1,0.08-0.2,0.18-0.32,0.24c-0.93,0.52-1.84,1.07-2.79,1.55
		c-0.61,0.31-1.27,0.51-1.91,0.77c-0.35,0.15-0.5,0.45-0.39,0.78c0.11,0.35,0.42,0.5,0.81,0.4c0.08-0.02,0.16-0.05,0.24-0.08
		c5.95-2.17,10.13-6.2,12.52-12.05c1.39-3.4,1.75-6.94,1.26-10.58c-0.08-0.56-0.35-0.84-0.74-0.78c-0.41,0.06-0.59,0.38-0.51,0.94
		c0.19,1.48,0.27,2.96,0.1,4.45c-0.02,0.19-0.12,0.4-0.26,0.53c-2.1,1.96-4.61,3.2-7.32,4.09c-2.71,0.89-5.53,1.22-8.33,1.6
		c-3.04,0.41-6.08,0.88-9.05,1.69c-2.25,0.62-4.4,1.45-6.23,2.95c-0.63,0.51-1.19,1.1-1.8,1.66c-1.58-1.48-2.86-3.2-3.89-5.13
		c-0.14-0.27-0.1-0.44,0.07-0.67c1.72-2.28,4.04-3.64,6.72-4.47c3.74-1.16,7.61-1.68,11.47-2.19c2.73-0.36,5.43-0.84,8.03-1.79
		c3.23-1.18,6.1-2.9,8.31-5.59c0.36-0.44,0.69-0.91,1.06-1.41c0.17,0.5,0.31,0.95,0.48,1.39c0.11,0.29,0.36,0.49,0.65,0.39
		c0.22-0.07,0.42-0.29,0.54-0.5c0.07-0.12-0.02-0.35-0.07-0.52C43.02,6.51,31.7,0.41,20.85,3.49c-0.94,0.27-1.85,0.65-2.76,1
		c-0.38,0.15-0.5,0.5-0.35,0.83c0.14,0.33,0.47,0.46,0.84,0.33c0.08-0.03,0.16-0.06,0.23-0.1c5.73-2.35,11.35-2.12,16.87,0.67
		c1.3,0.66,2.5,1.49,3.62,2.47c-1.04,1.61-2.36,2.91-3.9,3.99c-2.99,2.08-6.36,3.17-9.91,3.75c-3,0.49-6.02,0.87-9.03,1.37
		c-2.41,0.4-4.79,0.95-7.04,1.93c-0.77,0.33-1.5,0.74-2.26,1.12c0-0.05,0-0.11,0.01-0.16c0.74-4.75,2.91-8.71,6.51-11.89
		c0.74-0.66,1.6-1.18,2.37-1.81c0.18-0.14,0.31-0.44,0.31-0.66c0-0.16-0.23-0.43-0.4-0.46c-0.21-0.05-0.5,0.03-0.7,0.16
		c-7.11,4.5-10.83,13.18-9.21,21.46c2.2,11.24,12.96,18.62,24.19,16.59c0.49-0.09,0.74-0.36,0.68-0.74c-0.06-0.41-0.39-0.6-0.9-0.51
		c-2.19,0.39-4.38,0.42-6.58,0.06c-0.26-0.04-0.52-0.1-0.77-0.15c0-0.04,0-0.08,0.01-0.12C27.51,40.65,32.65,40.22,37.74,39.47z
		 M11.22,40.84"/>
	<path class="st0" d="M37.74,39.47c-5.08,0.75-10.23,1.18-15.06,3.15c0,0.04,0,0.08-0.01,0.12c0.26,0.05,0.51,0.11,0.77,0.15
		c2.2,0.35,4.39,0.33,6.58-0.06c0.51-0.09,0.84,0.1,0.9,0.51c0.06,0.38-0.19,0.65-0.68,0.74C19.01,46.1,8.25,38.72,6.05,27.48
		c-1.62-8.27,2.1-16.96,9.21-21.46c0.19-0.12,0.48-0.2,0.7-0.16c0.17,0.04,0.4,0.3,0.4,0.46c0,0.23-0.13,0.52-0.31,0.66
		c-0.77,0.62-1.63,1.15-2.37,1.81c-3.6,3.18-5.77,7.14-6.51,11.89c-0.01,0.05-0.01,0.11-0.01,0.16c0.76-0.38,1.5-0.78,2.26-1.12
		c2.25-0.98,4.63-1.54,7.04-1.93c3-0.49,6.02-0.87,9.03-1.37c3.55-0.58,6.92-1.67,9.91-3.75c1.55-1.08,2.86-2.38,3.9-3.99
		c-1.12-0.98-2.31-1.81-3.62-2.47C30.16,3.43,24.53,3.2,18.81,5.55c-0.08,0.03-0.15,0.07-0.23,0.1c-0.38,0.13-0.7,0-0.84-0.33
		c-0.14-0.33-0.02-0.68,0.35-0.83c0.91-0.36,1.82-0.74,2.76-1C31.7,0.41,43.02,6.51,46.43,17.26c0.05,0.17,0.14,0.4,0.07,0.52
		c-0.12,0.21-0.32,0.42-0.54,0.5c-0.3,0.1-0.54-0.1-0.65-0.39c-0.17-0.44-0.31-0.9-0.48-1.39c-0.38,0.5-0.7,0.97-1.06,1.41
		c-2.21,2.69-5.08,4.41-8.31,5.59c-2.6,0.95-5.3,1.43-8.03,1.79c-3.87,0.51-7.73,1.02-11.47,2.19c-2.68,0.83-5,2.2-6.72,4.47
		c-0.17,0.23-0.21,0.4-0.07,0.67c1.02,1.92,2.31,3.64,3.89,5.13c0.61-0.57,1.18-1.15,1.8-1.66c1.83-1.5,3.98-2.34,6.23-2.95
		c2.97-0.81,6.01-1.28,9.05-1.69c2.81-0.38,5.62-0.72,8.33-1.6c2.71-0.88,5.22-2.12,7.32-4.09c0.14-0.13,0.24-0.34,0.26-0.53
		c0.17-1.49,0.09-2.97-0.1-4.45c-0.07-0.56,0.1-0.88,0.51-0.94c0.39-0.06,0.66,0.22,0.74,0.78c0.49,3.63,0.13,7.18-1.26,10.58
		c-2.39,5.85-6.58,9.87-12.52,12.05c-0.08,0.03-0.16,0.06-0.24,0.08c-0.38,0.1-0.69-0.06-0.81-0.4c-0.11-0.32,0.04-0.63,0.39-0.78
		c0.63-0.26,1.3-0.46,1.91-0.77c0.95-0.48,1.86-1.03,2.79-1.55c0.11-0.06,0.21-0.16,0.32-0.24C37.76,39.54,37.75,39.5,37.74,39.47z"
		/>
	<path class="st0" d="M11.22,40.84"/>
</g>
</svg>
