<?xml version="1.0" encoding="utf-8"?>
<!-- Generator: Adobe Illustrator 25.2.3, SVG Export Plug-In . SVG Version: 6.00 Build 0)  -->
<svg version="1.1" id="Capa_1" xmlns="http://www.w3.org/2000/svg" xmlns:xlink="http://www.w3.org/1999/xlink" x="0px" y="0px"
	 viewBox="0 0 174.82 47.1" style="enable-background:new 0 0 174.82 47.1;" xml:space="preserve">
<style type="text/css">
	.st0{fill:#FFFFFF;}
	.st1{font-family:'Montserrat-Medium';}
	.st2{font-size:30.1385px;}
	.st3{fill:#00FA84;}
</style>
<g>
	<text transform="matrix(1 0 0 1 40.6723 34.8409)" class="st0 st1 st2">GAMING </text>
	<text transform="matrix(1 0 0 1 40.6723 34.8409)" class="st0 st1 st2">GAMING </text>
</g>
<g>
	<path class="st3" d="M11.8,20.73c1.01,0,2.02,0,3.03,0c0.73,0,1.22,0.46,1.22,1.19c0.01,2.05,0.01,4.1,0,6.14
		c0,0.73-0.49,1.2-1.22,1.2c-2.03,0.01-4.06,0.01-6.09,0c-0.74,0-1.22-0.49-1.22-1.22c0-2.03,0-4.06,0-6.09
		c0-0.75,0.48-1.22,1.24-1.22C9.78,20.73,10.79,20.73,11.8,20.73z M9.87,23.06c0,1.31,0,2.6,0,3.88c1.31,0,2.59,0,3.86,0
		c0-1.31,0-2.59,0-3.88C12.43,23.06,11.15,23.06,9.87,23.06z"/>
	<path class="st3" d="M30.89,20.62c2.42,0.01,4.37,1.98,4.36,4.42c-0.01,2.4-2,4.36-4.4,4.35c-2.4-0.01-4.36-1.99-4.36-4.4
		C26.49,22.57,28.46,20.61,30.89,20.62z M32.93,24.99c0-1.15-0.92-2.06-2.06-2.06c-1.15,0-2.07,0.93-2.07,2.09
		c0.01,1.14,0.94,2.06,2.08,2.05C32.02,27.06,32.93,26.14,32.93,24.99z"/>
	<path class="st3" d="M21.37,19.87c-1.03,0-2.06,0-3.09,0c-1.02,0-1.55-0.86-1.09-1.77c1.03-2.06,2.06-4.13,3.09-6.19
		c0.23-0.46,0.57-0.75,1.09-0.75c0.53,0,0.87,0.29,1.09,0.75c1.02,2.06,2.05,4.11,3.08,6.17c0.47,0.95-0.06,1.79-1.12,1.79
		C23.41,19.87,22.39,19.87,21.37,19.87z M20.06,17.53c0.9,0,1.75,0,2.64,0c-0.44-0.88-0.87-1.74-1.32-2.64
		C20.93,15.8,20.5,16.65,20.06,17.53z"/>
	<path class="st3" d="M21.35,32.89c0.81-0.81,1.58-1.57,2.34-2.33c0.31-0.31,0.66-0.47,1.1-0.38c0.44,0.09,0.75,0.35,0.88,0.79
		c0.14,0.44,0.03,0.84-0.29,1.17c-0.71,0.72-1.43,1.43-2.14,2.14c-0.07,0.07-0.15,0.13-0.24,0.2c0.09,0.1,0.16,0.17,0.22,0.24
		c0.72,0.72,1.44,1.44,2.16,2.17c0.37,0.38,0.45,0.87,0.24,1.32c-0.2,0.43-0.64,0.69-1.12,0.66c-0.33-0.02-0.59-0.18-0.82-0.42
		c-0.69-0.7-1.39-1.39-2.08-2.09c-0.06-0.06-0.11-0.14-0.18-0.23c-0.11,0.1-0.19,0.17-0.26,0.25c-0.72,0.72-1.44,1.45-2.16,2.16
		c-0.43,0.42-1.07,0.44-1.53,0.07c-0.45-0.36-0.57-1-0.27-1.49c0.08-0.13,0.19-0.24,0.3-0.35c0.75-0.74,1.5-1.49,2.34-2.32
		c-0.12-0.06-0.23-0.09-0.29-0.16c-0.72-0.72-1.44-1.44-2.16-2.16c-0.33-0.33-0.43-0.73-0.29-1.17c0.14-0.43,0.44-0.7,0.88-0.79
		c0.42-0.08,0.78,0.06,1.08,0.36c0.7,0.7,1.4,1.4,2.1,2.11C21.21,32.72,21.27,32.8,21.35,32.89z"/>
</g>
</svg>
